<svg width="189" height="14" viewBox="0 0 189 14" fill="none" xmlns="http://www.w3.org/2000/svg">
<g id="Group 9">
<g id="Group 6">
<line id="Line 1" x1="9" y1="4.5" x2="16" y2="4.5" stroke="white"/>
<line id="Line 2" x1="1" y1="8.5" x2="16" y2="8.5" stroke="white"/>
<line id="Line 3" x1="1" y1="12.5" x2="16" y2="12.5" stroke="white"/>
<path id="Polygon 1" d="M6 4L1.5 6.59808L1.5 1.40192L6 4Z" fill="white"/>
</g>
<g id="Group 7">
<rect id="Rectangle 13" x="42.8228" y="1" width="8" height="12" rx="0.5" stroke="white"/>
<circle id="Ellipse 2" cx="46.8228" cy="8.5" r="1.5" stroke="white"/>
<circle id="Ellipse 3" cx="46.8228" cy="3.5" r="0.5" stroke="white"/>
<path id="Vector 1" d="M39.9751 0.855469H35.6768C35.1245 0.855469 34.6768 1.30318 34.6768 1.85547V9.19049C34.6768 9.74278 35.1245 10.1905 35.6768 10.1905H39.9751" stroke="white"/>
<line id="Line 4" x1="37.3511" y1="12.9199" x2="39.9751" y2="12.9199" stroke="white"/>
</g>
<path id="Vector" d="M80.945 0.208496L80.293 1.00329C81.87 2.5262 82.863 4.69496 82.863 7.10537C82.863 9.51579 81.869 11.6845 80.293 13.2075L80.944 14.0022C81.8641 13.1272 82.5991 12.0619 83.102 10.8745C83.6048 9.68705 83.8646 8.40346 83.8647 7.1056C83.8648 5.80775 83.6052 4.52411 83.1025 3.33659C82.5998 2.14906 81.865 1.08371 80.945 0.208496ZM78.673 2.97933L78.022 3.77412C78.4467 4.20893 78.784 4.72752 79.0143 5.2996C79.2445 5.87168 79.363 6.4858 79.3629 7.10611C79.3628 7.72643 79.2441 8.34051 79.0137 8.91251C78.7833 9.48452 78.4458 10.003 78.021 10.4377L78.672 11.2325C79.712 10.1908 80.363 8.72829 80.363 7.10641C80.363 5.48454 79.713 4.021 78.673 2.97933ZM68 3.98037V10.2304H70.804L76 13.3554V0.855371L70.804 3.98037H68ZM75 2.65954V11.5512L71.072 9.18871H69V5.02204H71.072L75 2.65954Z" fill="white"/>
<rect id="Rectangle 14" x="92" y="5" width="97" height="4" rx="2" fill="#C4C4C4"/>
</g>
</svg>
